<svg xmlns="http://www.w3.org/2000/svg" width="22" height="15" viewBox="0 0 22 15" fill="none">
  <path d="M10.4857 14.9989C5.95109 14.9989 2.71561 13.7927 1.12238 11.5248C-0.250203 9.5464 -0.372803 6.91678 0.803853 3.90106C1.5883 1.85029 3.81869 0.451172 6.34339 0.451172C8.23079 0.451172 10.118 1.22328 11.7113 2.64666C12.5202 2.01943 14.4321 0.740809 16.5155 0.740809C18.4274 0.740809 19.947 1.77813 21.0501 3.80482C22.3001 6.14501 22.3247 8.53346 21.0746 10.5841C19.3586 13.3826 15.5105 14.9992 10.4857 14.9992L10.4857 14.9989ZM6.34322 1.56091C4.28433 1.56091 2.47045 2.67078 1.83316 4.28716C1.12242 6.14489 0.583134 8.79867 2.02927 10.8976C3.40186 12.8518 6.31874 13.8892 10.4856 13.8892C15.0937 13.8892 18.6234 12.4659 20.1185 10.005C21.148 8.31624 21.1235 6.28973 20.0695 4.31133C19.1871 2.64661 17.9859 1.82638 16.5398 1.82638C14.2848 1.82638 12.1033 3.75648 12.0788 3.78052C11.8582 3.97355 11.5151 3.97355 11.319 3.75646C9.43174 1.94685 7.56893 1.5608 6.3432 1.5608L6.34322 1.56091Z" fill="#1A162E"/>
</svg>